# xmcd
#
# Track frame offsets:
#	150
#	16912
#	30112
#	52370
#	72392
#	92345
#	109075
#	122440
#	137512
#	153645
#	166675
#	178250
#
# Disc length: 2564 seconds
#
# Revision: 2
# Processed by: cddbd v1.5.1PL0 Copyright (c) Steve Scherf et al.
# Submitted via: EasyCDDAExtractor 6.5.0.1
#
DISCID=930a020c
DTITLE=Butch Thompson - Lincoln Avenue Blues
DYEAR=1995
DGENRE=Blues
TTITLE0=Lincoln Avenue Blues
TTITLE1=Jump Steady Blues
TTITLE2=Jimmy's Preserve
TTITLE3=Jungle Blues
TTITLE4=Tishomingo Blues
TTITLE5=Wild Man Blues
TTITLE6=Gulf Coast Blues
TTITLE7=Pine Top's Boogie Woogie
TTITLE8=Backwater Blues
TTITLE9=Old New Orleans Blues
TTITLE10=St. James Infirmary
TTITLE11=Organ Grinder Blues
EXTD=
EXTT0=
EXTT1=
EXTT2=
EXTT3=
EXTT4=
EXTT5=
EXTT6=
EXTT7=
EXTT8=
EXTT9=
EXTT10=
EXTT11=
PLAYORDER=
